:SAMPLES-PER-SECOND 30
:FRAME-RANGE 1-2775
:FULLY-SPECIFIED
:DEGREES
1215
root  -41.0971 40.1637 -6.82912 -171.281 37.7005 -175.225
RightUpLeg  -0.1926 -6.63344 -5.92929
RightLeg  4.44802 -2.58947 0.415749
RightFoot  -1.2981 -1.46063 16.4171
RightToes  -5.28216e-011 1.2921e-014 -6.02303e-014
Spine  7.33458 -0.108095 -6.26825
Spine1  -1.65644 -0.142289 -1.78571
HEad  -16.6904 13.6579 12.6957
LeftShoulder1  1.39925 -0.265539 -31.067
LeftArm  -3.96003 16.3683 -27.9782
LeftForeArm  87.5988 -80.0248 -65.2324
LeftHand  -0.0782418 4.01282 5.13052
RightShoulder  2.55243 1.44361 45.2287
RightArm  -3.24481 -6.53375 6.91491
RightForeArm  29.0231 46.2848 9.64059
RightHand  -1.01251 5.71521 -10.8645
LeftUpLeg  -13.0833 10.2691 5.7435
LeftLeg  6.51249 6.97045 -3.29287
LeftFoot  1.3456 0.104741 -1.01568
LeftToes  -2.158e-010 -1.26819e-010 -1.05346e-011
1216
root  -41.129 40.1046 -6.82938 -171.834 37.414 -175.828
RightUpLeg  0.21248 -6.9333 -6.24049
RightLeg  4.17293 -3.48769 0.531456
RightFoot  -2.34188 -1.24549 15.5339
RightToes  -5.28216e-011 1.2921e-014 -6.02303e-014
Spine  7.07137 -0.234223 -6.43125
Spine1  -1.97729 -0.112581 -2.68578
HEad  -14.616 13.1907 10.1586
LeftShoulder1  1.39619 -0.241747 -31.2218
LeftArm  -3.92758 15.7573 -27.7677
LeftForeArm  85.1828 -79.8116 -62.5695
LeftHand  -0.0839345 3.79059 4.89338
RightShoulder  2.28445 1.02283 44.221
RightArm  -1.70393 -7.23122 7.74718
RightForeArm  27.6034 46.0939 9.67111
RightHand  -1.0215 5.78812 -10.8901
LeftUpLeg  -13.2891 10.143 5.21715
LeftLeg  7.19701 6.76032 -3.26506
LeftFoot  0.883956 0.109478 -1.07249
LeftToes  -2.158e-010 -1.26819e-010 -1.05346e-011
1217
root  -41.156 40.0313 -6.84206 -172.795 37.226 -176.68
RightUpLeg  0.966926 -7.4203 -6.68643
RightLeg  3.61465 -3.37795 0.802948
RightFoot  -3.8418 -0.903275 13.3249
RightToes  -5.28216e-011 1.2921e-014 -6.02303e-014
Spine  6.64305 -0.362043 -6.31269
Spine1  -2.0543 -0.025604 -3.78534
HEad  -13.2493 13.4656 6.92435
LeftShoulder1  1.36747 -0.128876 -31.5895
LeftArm  -4.13074 15.2067 -27.2238
LeftForeArm  86.9392 -79.9493 -63.9093
LeftHand  -0.0870337 3.5292 4.45613
RightShoulder  2.12308 0.818374 42.989
RightArm  0.0553852 -8.08847 8.57829
RightForeArm  26.0838 45.8744 9.69828
RightHand  -1.02123 5.76754 -10.9062
LeftUpLeg  -13.344 10.1982 4.42662
LeftLeg  8.24953 6.39159 -3.04656
LeftFoot  0.0151027 0.152447 -1.53458
LeftToes  -2.158e-010 -1.26819e-010 -1.05346e-011
1218
root  -41.1738 39.9279 -6.83499 -173.948 37.0843 -177.643
RightUpLeg  1.89608 -7.66169 -7.13273
RightLeg  3.07071 -6.32166 0.620691
RightFoot  -5.25495 -0.669401 11.8758
RightToes  -5.28216e-011 1.2921e-014 -6.02303e-014
Spine  6.1785 -0.40146 -6.00089
Spine1  -1.92476 0.222018 -5.18983
HEad  -12.5593 14.3756 3.99691
LeftShoulder1  1.30614 0.0415803 -31.6693
LeftArm  -4.77527 15.0413 -27.0951
LeftForeArm  92.8105 -80.365 -69.2061
LeftHand  -0.0854462 3.1707 3.7157
RightShoulder  1.98414 0.642527 41.8162
RightArm  2.28358 -9.26538 9.12853
RightForeArm  25.0922 46.1615 9.87774
RightHand  -1.01514 5.77615 -10.8356
LeftUpLeg  -13.5185 10.4937 3.31602
LeftLeg  9.71579 5.75164 -2.39898
LeftFoot  -0.864513 0.162806 -1.71934
LeftToes  -2.158e-010 -1.26819e-010 -1.05346e-011
1219
root  -41.2105 39.805 -6.81413 -175.128 37.0596 -178.706
RightUpLeg  2.84632 -8.06146 -7.76318
RightLeg  2.33176 -8.70471 0.529559
RightFoot  -6.78225 -0.45132 10.1501
RightToes  -5.28216e-011 1.2921e-014 -6.02303e-014
Spine  5.80941 -0.298644 -5.61132
Spine1  -1.86122 0.614043 -6.59523
HEad  -12.0957 15.4951 0.284503
LeftShoulder1  1.27469 0.154532 -32.0015
LeftArm  -5.66647 15.3036 -26.6308
LeftForeArm  103.345 -80.8372 -79.9267
LeftHand  -0.0572081 3.31426 2.29129
RightShoulder  1.77741 0.325953 40.4766
RightArm  4.61419 -10.7458 9.47309
RightForeArm  24.3433 47.3974 10.4137
RightHand  -0.974638 5.62487 -10.5532
LeftUpLeg  -13.9044 10.5903 1.90253
LeftLeg  11.3872 5.42535 -1.29676
LeftFoot  -1.68545 0.167455 -1.86276
LeftToes  -2.158e-010 -1.26819e-010 -1.05346e-011
1220
root  -41.2816 39.7026 -6.80267 -175.85 36.7431 -179.404
RightUpLeg  2.90497 -8.03564 -8.00822
RightLeg  2.99849 -9.50997 -0.285024
RightFoot  -8.36753 -0.300163 9.34714
RightToes  -5.28216e-011 1.2921e-014 -6.02303e-014
Spine  5.48448 -0.302577 -4.42877
Spine1  -1.92339 0.929502 -7.93549
HEad  -12.1185 16.9176 -3.99132
LeftShoulder1  1.21805 0.3212 -32.2123
LeftArm  -6.41558 15.7672 -26.039
LeftForeArm  117.604 -80.9197 -94.8416
LeftHand  -0.0316544 3.31575 0.796611
RightShoulder  1.51024 -0.133042 38.9805
RightArm  7.03101 -12.577 9.7955
RightForeArm  23.7832 49.69 11.4216
RightHand  -0.96398 5.48212 -10.571
LeftUpLeg  -14.5227 10.8901 0.556658
LeftLeg  12.8138 4.62841 -0.138089
LeftFoot  -2.32068 0.163852 -1.90037
LeftToes  -2.158e-010 -1.26819e-010 -1.05346e-011
1221
root  -41.3524 39.5807 -6.75253 -176.552 36.7035 -179.602
RightUpLeg  2.4892 -7.90442 -8.09936
RightLeg  5.13309 -9.37741 -1.19205
RightFoot  -10.0671 -0.188419 10.7448
RightToes  -5.28216e-011 1.2921e-014 -6.02303e-014
Spine  5.59138 -0.0490015 -2.83362
Spine1  -1.82516 1.53148 -9.48008
HEad  -12.634 17.3685 -8.02456
LeftShoulder1  1.15947 0.502733 -32.5718
LeftArm  -6.68559 16.0677 -25.0881
LeftForeArm  126.903 -80.6398 -104.577
LeftHand  -0.0129469 3.36298 -0.321399
RightShoulder  1.2921 -0.53598 37.8003
RightArm  9.266 -14.4288 9.86682
RightForeArm  23.9094 52.2093 12.5977
RightHand  -0.951409 5.14572 -10.752
LeftUpLeg  -15.023 10.8502 -0.0630886
LeftLeg  14.6537 4.44209 0.885556
LeftFoot  -3.11467 0.160991 -1.97832
LeftToes  -2.158e-010 -1.26819e-010 -1.05346e-011
1222
root  -41.4294 39.497 -6.69324 -177.046 36.2504 -179.099
RightUpLeg  2.61545 -7.96712 -7.92857
RightLeg  6.62676 -9.34552 -1.28313
RightFoot  -10.6978 -0.136037 11.2071
RightToes  -5.28216e-011 1.2921e-014 -6.02303e-014
Spine  5.96009 0.0986299 -1.25078
Spine1  -1.12707 1.97339 -10.4776
HEad  -13.3801 17.1402 -11.8573
LeftShoulder1  1.12624 0.641265 -33.2745
LeftArm  -6.49912 16.2826 -24.2734
LeftForeArm  131.074 -80.4119 -109.016
LeftHand  -0.00682007 3.42719 -0.734716
RightShoulder  1.14122 -0.839131 37.1518
RightArm  10.6267 -15.5557 10.0021
RightForeArm  23.4918 53.8798 13.5083
RightHand  -0.957144 5.00409 -10.9538
LeftUpLeg  -15.1774 10.5846 0.194208
LeftLeg  16.2026 4.12062 1.39586
LeftFoot  -3.65148 0.135568 -1.69048
LeftToes  -2.158e-010 -1.26819e-010 -1.05346e-011
1223
root  -41.4636 39.4914 -6.62114 -177.284 35.5005 -178.909
RightUpLeg  2.85605 -7.89879 -7.6769
RightLeg  6.97674 -10.1625 -1.36603
RightFoot  -10.7184 -0.131525 10.7313
RightToes  -5.28216e-011 1.2921e-014 -6.02303e-014
Spine  5.83299 0.190548 -1.20522
Spine1  -0.45852 2.06684 -10.1029
HEad  -13.6624 16.5268 -14.9355
LeftShoulder1  1.10881 0.683744 -33.2487
LeftArm  -5.7114 17.3087 -24.1308
LeftForeArm  134.477 -80.2407 -112.067
LeftHand  -0.00570698 3.46984 -0.849533
RightShoulder  1.05905 -1.00738 36.7833
RightArm  11.4654 -16.3651 10.0344
RightForeArm  23.0436 55.2831 14.3492
RightHand  -0.925755 5.00126 -10.6091
LeftUpLeg  -15.0735 10.6114 0.362716
LeftLeg  16.3155 3.37168 1.18522
LeftFoot  -3.65551 0.134752 -1.68363
LeftToes  -2.158e-010 -1.26819e-010 -1.05346e-011
1224
root  -41.4724 39.5251 -6.55522 -177.33 34.5247 -178.919
RightUpLeg  3.23816 -7.94929 -7.59191
RightLeg  6.50452 -11.036 -1.19249
RightFoot  -10.3404 -0.160856 10.3239
RightToes  -5.28216e-011 1.2921e-014 -6.02303e-014
Spine  5.61258 0.137901 -1.51504
Spine1  -0.0806033 1.92744 -9.5206
HEad  -13.1719 15.2473 -16.8173
LeftShoulder1  1.07914 0.734104 -32.8939
LeftArm  -4.58259 18.3893 -24.0067
LeftForeArm  137.712 -80.0248 -115.131
LeftHand  -0.00622001 3.35772 -0.721236
RightShoulder  0.897375 -1.3828 36.7532
RightArm  12.2571 -17.099 10.0049
RightForeArm  23.6387 57.1453 15.461
RightHand  -0.913696 4.85299 -10.6185
LeftUpLeg  -14.9226 10.6897 0.374371
LeftLeg  15.6722 2.50539 0.71352
LeftFoot  -3.22498 0.124532 -1.48658
LeftToes  -2.158e-010 -1.26819e-010 -1.05346e-011
1225
root  -41.508 39.5555 -6.48813 -177.163 33.7463 -179.02
RightUpLeg  3.26863 -8.05736 -7.63409
RightLeg  6.04744 -11.8288 -1.01236
RightFoot  -10.0619 -0.185871 10.4789
RightToes  -5.28216e-011 1.2921e-014 -6.02303e-014
Spine  5.557 0.105196 -1.58225
Spine1  0.0641861 1.81676 -9.08926
HEad  -12.6333 13.6134 -18.7395
LeftShoulder1  1.07372 0.750876 -32.9339
LeftArm  -3.71522 18.6659 -23.635
LeftForeArm  137.65 -80.0708 -114.745
LeftHand  -0.0096086 3.1321 -0.397978
RightShoulder  0.546905 -2.19781 36.6784
RightArm  13.0735 -17.6942 10.2919
RightForeArm  24.271 59.4346 17.0308
RightHand  -0.91214 4.58549 -10.8692
LeftUpLeg  -15.0001 10.6302 0.280203
LeftLeg  14.923 1.88177 0.262175
LeftFoot  -2.73023 0.120509 -1.3825
LeftToes  -2.158e-010 -1.26819e-010 -1.05346e-011
1226
root  -41.5884 39.5901 -6.40246 -176.901 33.3578 -179.155
RightUpLeg  2.87225 -7.98914 -7.60173
RightLeg  5.82983 -12.3489 -1.06964
RightFoot  -9.70257 -0.211625 10.1493
RightToes  -5.28216e-011 1.2921e-014 -6.02303e-014
Spine  5.6508 0.0598691 -1.28382
Spine1  0.323214 1.76122 -8.89474
HEad  -13.0161 11.9587 -20.7798
LeftShoulder1  1.06884 0.78285 -33.2106
LeftArm  -3.73589 18.1837 -23.5796
LeftForeArm  133.217 -80.4428 -109.682
LeftHand  -0.0196889 2.83425 0.200442
RightShoulder  0.420514 -2.49734 36.866
RightArm  13.4542 -18.3893 10.4209
RightForeArm  24.8698 61.6274 18.7904
RightHand  -0.911058 4.34584 -11.1092
LeftUpLeg  -15.1803 10.4201 0.141197
LeftLeg  14.0738 1.8519 -0.0625065
LeftFoot  -2.09072 0.116217 -1.28107
LeftToes  -2.158e-010 -1.26819e-010 -1.05346e-011
1227
root  -41.6959 39.6247 -6.3053 -176.487 33.2303 -179.342
RightUpLeg  2.15006 -7.93656 -7.63756
RightLeg  5.64956 -12.6199 -1.1272
RightFoot  -9.20082 -0.248828 9.9396
RightToes  -5.28216e-011 1.2921e-014 -6.02303e-014
Spine  5.98557 0.00983019 -0.85582
Spine1  0.437914 1.69486 -8.72415
HEad  -13.4207 10.3204 -22.6532
LeftShoulder1  1.0713 0.800331 -33.5521
LeftArm  -4.02448 17.5057 -23.8184
LeftForeArm  125.96 -80.8413 -101.588
LeftHand  -0.0388773 2.65007 1.06825
RightShoulder  0.352514 -2.66094 37.1525
RightArm  13.7874 -18.8848 10.5703
RightForeArm  25.93 63.3042 20.2776
RightHand  -0.923695 4.19464 -11.4267
LeftUpLeg  -15.4987 9.9474 -0.028099
LeftLeg  13.1247 2.32253 -0.331517
LeftFoot  -1.48912 0.128802 -1.401
LeftToes  -2.158e-010 -1.26819e-010 -1.05346e-011
